<?xml version="1.0" encoding="UTF-8"?>
<svg id="Layer_1" xmlns="http://www.w3.org/2000/svg" version="1.1" viewBox="0 0 24 24">
  <!-- Generator: Adobe Illustrator 30.1.0, SVG Export Plug-In . SVG Version: 2.1.1 Build 136)  -->
  <defs>
    <style>
      .st0 {
        fill: #59585a;
      }

      .st0, .st1, .st2 {
        isolation: isolate;
      }

      .st3 {
        fill: #fff;
      }

      .st4, .st5 {
        fill: #f68d36;
      }

      .st1 {
        fill: #92267c;
      }

      .st2 {
        fill: #a4ce47;
      }

      .st5 {
        stroke: #f68d36;
        stroke-miterlimit: 10;
        stroke-width: .5px;
      }
    </style>
  </defs>
  <path class="st2" d="M16.6,2.4l-4.4,2.9s0,5.9,0,5.7,4.7,1.9,4.7,1.9l4.5-1.8v-6c0,0-4.8-2.6-4.8-2.6Z"/>
  <path class="st1" d="M7.6,2.8l-4.4,2.9s0,5.5,0,5.7c0,.5,4.6,2.2,4.6,2.2l4.5-2.9v-5.2l-4.7-2.6Z"/>
  <path class="st5" d="M21.7,10.8c.7,0,1.3,0,1.9.2v.3c-.6,0-1-.1-1.4-.1-3.4,0-6.2,1.9-6.2,4.3s1.6,3.1,3.6,3.9l-.2.3c-2.3-.7-3.9-2.3-3.9-4.3s2.8-4.6,6.2-4.6Z"/>
  <path class="st5" d="M2.2,11.2c-.7,0-1.3,0-1.9.2v.3c.6,0,1-.1,1.4-.1,3.4,0,6.2,1.9,6.2,4.3s-1.6,3.1-3.6,3.9l.2.3c2.3-.7,3.9-2.3,3.9-4.3,0-2.5-2.8-4.6-6.2-4.6Z"/>
  <g>
    <ellipse class="st3" cx="12.2" cy="14" rx="4.7" ry="4.3"/>
    <g>
      <ellipse class="st0" cx="10.9" cy="11.9" rx=".4" ry=".5"/>
      <ellipse class="st0" cx="13.3" cy="11.9" rx=".4" ry=".5"/>
    </g>
  </g>
  <polygon class="st4" points="7.4 13.8 7.4 18.6 12.4 21.4 16.9 18.3 16.9 13.8 7.4 13.8"/>
  <rect class="st0" x="7.4" y="15" width="9.4" height=".8"/>
  <rect class="st0" x="7.4" y="16.5" width="9.5" height=".8"/>
  <polygon class="st3" points="7.2 8.8 7.5 9.5 8.7 9.5 9.3 10.7 9.9 10.5 9.1 8.8 7.1 8.7 7.2 8.8"/>
  <polygon class="st3" points="16.5 8.8 16.2 9.5 15 9.5 14.4 10.7 13.8 10.5 14.6 8.8 16.6 8.7 16.5 8.8"/>
</svg>