<?xml version="1.0" encoding="UTF-8"?>
<svg id="Layer_1" xmlns="http://www.w3.org/2000/svg" version="1.1" viewBox="0 0 24 24">
  <!-- Generator: Adobe Illustrator 30.2.1, SVG Export Plug-In . SVG Version: 2.1.1 Build 1)  -->
  <defs>
    <style>
      .st0 {
        font-family: Arial-BoldMT, Arial;
        font-size: 8.5px;
        font-weight: 700;
      }

      .st0, .st1 {
        fill: #00878f;
      }
    </style>
  </defs>
  <path class="st1" d="M18.1,2.5c-.3,0-.6,0-.9,0-2.5.4-4.2,2.2-5.2,3.7-.9-1.4-2.6-3.3-5.2-3.7-.3,0-.6,0-.9,0-3.3,0-5.9,2.6-5.9,5.9s2.7,5.9,5.9,5.9.6,0,.9,0c2.5-.4,4.2-2.2,5.2-3.7.9,1.4,2.6,3.3,5.2,3.7.3,0,.6,0,.9,0,3.2,0,5.9-2.6,5.9-5.9s-2.7-5.9-5.9-5.9ZM6.6,12c-.2,0-.4,0-.6,0-2.1,0-3.9-1.7-3.9-3.8s1.7-3.8,3.9-3.8.4,0,.6,0c2.4.4,3.8,2.8,4.3,3.7-.5,1-2,3.4-4.4,3.7ZM18.2,12.1c-.2,0-.4,0-.6,0-2.4-.4-3.9-2.8-4.3-3.7.5-1,2-3.4,4.3-3.7.2,0,.4,0,.6,0,2.1,0,3.9,1.7,3.9,3.8s-1.8,3.8-3.9,3.8ZM19.8,7.7v1.1h-1.2v1.2h-1.2v-1.2h-1.2v-1.1h1.2v-1.2h1.2v1.2s1.2,0,1.2,0ZM4.3,8.8h3.6v-1.1h-3.6v1.1h0Z"/>
  <text class="st0" transform="translate(5.2 21.6)"><tspan x="0" y="0">IDE</tspan></text>
</svg>