<?xml version="1.0" encoding="UTF-8"?>
<svg id="Layer_1" xmlns="http://www.w3.org/2000/svg" version="1.1" viewBox="0 0 24 24">
  <!-- Generator: Adobe Illustrator 30.1.0, SVG Export Plug-In . SVG Version: 2.1.1 Build 136)  -->
  <defs>
    <style>
      .st0, .st1, .st2, .st3, .st4 {
        stroke: #231f20;
      }

      .st0, .st1, .st2, .st5 {
        stroke-width: .4px;
      }

      .st0, .st6, .st4 {
        fill: #fff;
      }

      .st7 {
        fill: #886327;
      }

      .st1, .st5 {
        fill: none;
      }

      .st8 {
        fill: #8b5a2b;
      }

      .st2 {
        fill: #f26322;
      }

      .st9, .st3 {
        fill: #231f20;
      }

      .st10 {
        fill: #a97f2c;
      }

      .st11 {
        fill: #5d3a1a;
      }

      .st12 {
        fill: #333;
      }

      .st3 {
        stroke-width: .3px;
      }

      .st13 {
        fill: #a74624;
      }

      .st5 {
        stroke: #000;
      }

      .st4 {
        stroke-width: .6px;
      }

      .st14 {
        fill: #f26935;
      }
    </style>
  </defs>
  <ellipse class="st8" cx="11.9" cy="12.1" rx=".6" ry=".5"/>
  <ellipse class="st11" cx="11.3" cy="11.9" rx=".2" ry=".3"/>
  <ellipse class="st11" cx="12.5" cy="11.9" rx=".2" ry=".3"/>
  <ellipse class="st6" cx="11.9" cy="12.2" rx=".4" ry=".3"/>
  <path class="st6" d="M11.8,11.6h.1c0,0,.1,0,.1,0v.4h-.2v-.4Z"/>
  <ellipse class="st12" cx="11.7" cy="11.9" rx=".1" ry=".1"/>
  <ellipse class="st12" cx="12.2" cy="11.9" rx=".1" ry=".1"/>
  <ellipse class="st12" cx="11.9" cy="12.2" rx=".1" ry="0"/>
  <ellipse class="st14" cx="11.9" cy="12.4" rx="0" ry=".1"/>
  <g>
    <path class="st4" d="M20.4,9.5c.4-2-1.4-3.7-4.2-4.6-.7-2.5-2.4-4-4.9-4s-2.7.5-3.5,1.4c-1.8.1-1.8,2.2-3.5,5.1-1.3,2.3-.3,4.7,2.8,5.1-.5,1-.7,2.3-.7,3.5-1.5-1.7-1.1-3.4-2-3.4-1.1,0,.3,3.7,2.2,5.7,0,.3.2.7.3,1-.7.2-1.4.9-1.4,1.6s.6,1,1.4,1c0,.1,0,.2,0,.3,0,.2,0,.4.3.6.2.1.5.2.9.2h.2c.9,0,1.4-.2,1.8-.5.3-.3.5-.7.5-1.1,0,0,0-.2,0-.2,0,0,0,0,0-.1.7,0,1.4,0,2.1,0,0,0,0,.1,0,.2,0,0,0,.2,0,.2,0,.3.2.7.5,1.1s1,.6,1.9.6h.2c.4,0,.7,0,.9-.2.2-.1.3-.3.3-.6,0-.1,0-.2,0-.3.8,0,1.5,0,1.5-1s-.7-1.4-1.4-1.6c.7-2.1.6-4.5-.1-6.5h0c.8-.2,1.5-.4,2.1-.8.3.4.5.8,1.2.7.9-.1,1.3-1.5.5-2.3.2-.3.3-.7.4-1.1Z"/>
    <path class="st0" d="M20.5,9.3c.4-2-1.4-3.7-4.2-4.6-.7-2.5-2.4-4-4.9-4s-2.7.5-3.5,1.4c-1.8.1-1.8,2.2-3.5,5.1-1.3,2.3-.3,4.7,2.8,5.1-.5,1-.7,2.3-.7,3.5-1.5-1.7-1.1-3.4-2-3.4-1.1,0,.3,3.7,2.2,5.7,0,.3.2.7.3,1-.7.2-1.4.9-1.4,1.6s.6,1,1.4,1c0,.1,0,.2,0,.3,0,.2,0,.4.3.6.2.1.5.2.9.2h.2c.9,0,1.4-.2,1.8-.5.3-.3.5-.7.5-1.1,0,0,0-.2,0-.2,0,0,0,0,0-.1.7,0,1.4,0,2.1,0,0,0,0,.1,0,.2,0,0,0,.2,0,.2,0,.3.2.7.5,1.1s1,.6,1.9.6h.2c.4,0,.7,0,.9-.2.2-.1.3-.3.3-.6,0-.1,0-.2,0-.3.8,0,1.5,0,1.5-1s-.7-1.4-1.4-1.6c.7-2.1.6-4.5-.1-6.5h0c.8-.2,1.5-.4,2.1-.8.3.4.5.8,1.2.7.9-.1,1.3-1.5.5-2.3.2-.3.3-.7.4-1.1Z"/>
    <path class="st10" d="M16.4,19.2c.3-.1,1.4.4,1.4,1.6s-1.6,1-1.6,1l-.7-1.6s-.3-3-.2-4.6-1.1-2.7-1.1-2.7c.4,0,.8,0,1.1,0,.6,0,1-.2,1-.2,0,0,.6.7.6,2.8,0,2.2-.8,3.8-.5,3.6Z"/>
    <path class="st10" d="M14.9,2.2c.6.6,1.6,2.8,1.6,2.8,0,0-1.6-.2-2.3-.8-.4-.4-2.3-3.3-2.3-3.3.6,0,2.4.7,3,1.3Z"/>
    <path class="st10" d="M11.4.7s2.2,3.2,2.2,4.4c0,1.7-3.1,1.3-1.1,6,.5,1.2-.6,2.1-2.3,1.9-.8-.1-2.2.2-2.2,2.3s-.1,4.9-.1,4.9l-.6,1.6s-1.6.2-1.6-.7.4-1.2,1.1-1.6,0-1.3,0-1.3c0,0-2.2-3.1-2.3-3.5s.8-1.1.8-1.1c0,0,1,2.1,1.3,2.3s.2-2.7.6-3.1.6-10.4.6-10.4c0,0,.3-1.2,3.7-1.6Z"/>
    <path class="st1" d="M10.9,9.3c-2.9.5-4.3,3.5-4.4,6.5-1.5-1.7-1.1-3.4-2-3.4-1.1,0,.3,3.7,2.2,5.7,0,.3.2.7.3,1-.7.2-1.4.9-1.4,1.6s.7,1,1.6,1c.4,0,.8-.2,1.1-.5,2.1-.6,4.4-.6,6.6,0,.3.3.7.5,1.1.5.9,0,1.6,0,1.6-1s-.7-1.4-1.4-1.6c.7-2.1.6-4.5-.1-6.5"/>
    <path class="st6" d="M8.1,15s0,4.5-.2,5.2-1.7,2.5.3,2.5c2,0,2.4-1.1,2.3-1.6s-.3-4.7-.3-4.7"/>
    <path class="st9" d="M8.4,22.9h-.2c-.4,0-.7,0-.9-.2h0c-.2-.1-.3-.4-.3-.6h0c0-.4.2-.7.3-1.1h0c.2-.3.3-.7.4-.9h0c0-.2,0-.6,0-1.1h0c0-.5,0-1.1,0-1.8h0c0-1.2,0-.9,0-1.4,0-.3,0-.6.2-.9,0,0,.2.3.2.9s0,1.6-.1,3.2h0c0,.5,0,.9,0,1.2h0c0,.3-.2.6-.4.9h0c-.2.3-.3.7-.3.9h0c0,.1,0,.2.1.3h0c.1,0,.3.2.7.2h.2c.8,0,1.3-.2,1.6-.5h0c.2-.2.4-.5.4-.8h0c0,0,0-.1,0-.2h0c0-.2,0-.5-.1-1h0c0-.5,0-1,0-1.6h0c0-1.1,0-.8,0-1.3,0-.3,0-.6.1-.8.1.3.2.6.2,1,0,.5,0-.4,0,.4h0c0,.8,0,1.7.1,2.4h0c0,.3,0,.6.1.9h0c0,0,0,.2,0,.2h0c0,.4-.2.8-.5,1.1h0c-.4.3-1,.5-1.8.5h0Z"/>
    <path class="st6" d="M15.2,15s0,4.5.2,5.2,1.8,2.5-.2,2.5c-2,0-2.5-1.1-2.4-1.6s.3-4.7.3-4.7"/>
    <path class="st9" d="M13.2,22.3c-.4-.3-.5-.7-.5-1.1h0c0,0,0-.2,0-.2h0c0-.3,0-.6.1-.9h0c0-.5,0-1,0-1.6h0c0-1.1,0-.9,0-1.3s.2-.8.2-.8c0,.3.1.5.1.8,0,.4,0,1.5-.2,2.9h0c0,.5,0,.8-.1,1h0s0,0,0,.1h0c0,.3.2.6.4.8h0c.3.3.8.5,1.6.5h.2c.4,0,.6,0,.7-.2h0c0,0,.2-.2.1-.3h0c0-.2-.2-.6-.3-.9h0c-.2-.3-.4-.7-.4-1h0c0-.2,0-.6,0-1.2h0c0-.5,0-1.2,0-1.8h0c0-1.2,0-1.3,0-1.8,0-.3,0-.6,0-.9,0,0,.3.5.3.9s0,0,0,.9h0c0,.8,0,1.8,0,2.6h0c0,.5,0,.9,0,1.1h0c0,.2.2.5.4.9h0c.2.4.4.7.4,1.1h0c0,.2,0,.4-.3.6h0c-.2.1-.5.2-.9.2h-.2c-.9,0-1.5-.2-1.9-.6h0Z"/>
    <path class="st1" d="M12.6,12.7c3.9.7,7.4-.8,7.9-3.3.4-2-1.4-3.7-4.2-4.6-.7-2.5-2.4-4-4.9-4s-4.5,1.6-4.5,3.6"/>
    <path class="st3" d="M20.7,7.4c.1.7-.5,1.3-1.4,1.5s-1.7-.3-1.8-1,.5-1.3,1.4-1.5,1.7.3,1.8,1Z"/>
    <path class="st10" d="M10.9,7.2c1.6,4-.8,5.2-2.8,5.2-3.7,0-5-2.6-3.6-5.1,1.6-3,1.6-5.1,3.6-5.1s1.8,2.4,2.8,5.1Z"/>
    <path class="st5" d="M10.9,7.2c1.6,4-.8,5.2-2.8,5.2-3.7,0-5-2.6-3.6-5.1,1.6-3,1.6-5.1,3.6-5.1s1.8,2.4,2.8,5.1Z"/>
    <path class="st6" d="M20.1,6.7c0,.2-.3.5-.9.7s-1.1.2-1.2,0,.3-.5.9-.7,1.1-.2,1.2,0Z"/>
    <ellipse class="st3" cx="11.7" cy="4.5" rx=".8" ry=".5"/>
    <path class="st9" d="M16.1,4c0,.3-.2.6-.7.6s-.8-.3-.8-.6.4-.6.8-.6.7.3.7.6Z"/>
    <path class="st6" d="M11.6,4.3c0,.1-.1.2-.3.2s-.3,0-.3-.2.1-.2.3-.2.3,0,.3.2Z"/>
    <path class="st6" d="M15.4,3.8c0,.1,0,.2-.2.2-.1,0-.2,0-.3-.2,0-.1,0-.2.2-.2,0,0,0,0,0,0,.1,0,.2,0,.2.2Z"/>
    <path class="st9" d="M15.1,12c2.4.7,5.3,0,5.4-2.9,0,0,0-.6-.1-.3-.7,1.3-2.4,1.9-5.1,2.2-.4,0-1.2,0-1.2.4,0,.2.2.3,1,.5Z"/>
    <path class="st2" d="M19.8,10.1c1.1.7.8,2.2-.2,2.4-1.1.2-1.2-1.2-2.1-1.4,0,0,.9-.2,1.5-.4.3-.2.6-.4.8-.6Z"/>
    <path class="st13" d="M19,10.8s.8.4.8,1.4c0,0-.2-.6-.4-.8l-.5-.6Z"/>
    <path class="st7" d="M10.7,8.6s.8,3.6-3.9,3c0,0,1.7-.8,2.4-1.3s1.5-1.6,1.5-1.6Z"/>
  </g>
</svg>