<?xml version="1.0" encoding="UTF-8"?>
<svg id="Layer_1" xmlns="http://www.w3.org/2000/svg" version="1.1" viewBox="0 0 24 24">
  <!-- Generator: Adobe Illustrator 30.1.0, SVG Export Plug-In . SVG Version: 2.1.1 Build 136)  -->
  <defs>
    <style>
      .st0 {
        fill: #659ad2;
      }

      .st1 {
        fill: #fff;
      }

      .st2 {
        fill: #00599c;
      }

      .st3 {
        fill: #004482;
      }
    </style>
  </defs>
  <path class="st2" d="M22.2,17.9c.2-.3.3-.6.3-.9V7c0-.3-.1-.6-.3-.9l-10.2,5.9,10.2,5.9Z"/>
  <path class="st3" d="M12.9,23.6l8.7-5c.2-.1.5-.4.6-.7l-10.2-5.9L1.8,17.9c.2.3.4.5.6.7l8.7,5c.5.3,1.3.3,1.8,0Z"/>
  <path class="st0" d="M22.2,6.1c-.2-.3-.4-.5-.6-.7L12.9.4c-.5-.3-1.3-.3-1.8,0L2.4,5.4c-.5.3-.9,1-.9,1.6v10c0,.3.1.6.3.9l10.2-5.9,10.2-5.9Z"/>
  <path class="st1" d="M12,19c-3.9,0-7-3.1-7-7s3.1-7,7-7,4.8,1.3,6.1,3.5l-3,1.7c-.6-1.1-1.8-1.7-3-1.7-1.9,0-3.5,1.6-3.5,3.5s1.6,3.5,3.5,3.5,2.4-.7,3-1.7l3,1.7c-1.2,2.2-3.6,3.5-6.1,3.5Z"/>
  <polygon class="st1" points="19 11.6 18.2 11.6 18.2 10.8 17.4 10.8 17.4 11.6 16.7 11.6 16.7 12.4 17.4 12.4 17.4 13.2 18.2 13.2 18.2 12.4 19 12.4 19 11.6"/>
  <polygon class="st1" points="21.9 11.6 21.1 11.6 21.1 10.8 20.3 10.8 20.3 11.6 19.6 11.6 19.6 12.4 20.3 12.4 20.3 13.2 21.1 13.2 21.1 12.4 21.9 12.4 21.9 11.6"/>
</svg>