<?xml version="1.0" encoding="UTF-8"?>
<svg id="Layer_1" xmlns="http://www.w3.org/2000/svg" version="1.1" viewBox="0 0 24 24">
  <!-- Generator: Adobe Illustrator 30.1.0, SVG Export Plug-In . SVG Version: 2.1.1 Build 136)  -->
  <defs>
    <style>
      .st0 {
        fill: #813084;
      }

      .st1 {
        fill: #fff;
      }

      .st2 {
        fill: #6a1577;
      }

      .st3 {
        fill: #9a4993;
      }
    </style>
  </defs>
  <path class="st3" d="M22.6,7.2c0-.4,0-.7-.3-1-.2-.3-.4-.5-.7-.7-2.8-1.6-5.5-3.2-8.3-4.8-.7-.4-1.5-.4-2.2,0-1.1.6-6.6,3.8-8.2,4.8-.7.4-1,1-1,1.8v9.6c0,.4,0,.7.2,1,.2.3.4.6.8.8,1.6,1,7.1,4.1,8.2,4.8.7.4,1.5.5,2.2,0,2.8-1.6,5.5-3.2,8.3-4.8.3-.2.6-.4.8-.8.2-.3.2-.6.2-1V7.2Z"/>
  <path class="st2" d="M12.2,12l-10.2,5.9c.2.3.4.6.8.8,1.6,1,7.1,4.1,8.2,4.8.7.4,1.5.5,2.2,0,2.8-1.6,5.5-3.2,8.3-4.8.3-.2.6-.4.8-.8l-10.1-5.9Z"/>
  <path class="st2" d="M9.2,13.7c.6,1,1.7,1.7,3,1.7s2.4-.7,3-1.8l-3-1.7-3,1.7Z"/>
  <path class="st0" d="M22.6,7.2c0-.4,0-.7-.3-1l-10.1,5.8,10.1,5.9c.2-.3.2-.6.2-1V7.2Z"/>
  <g>
    <path class="st1" d="M15.2,13.7c-.6,1-1.7,1.8-3,1.8s-2.4-.7-3-1.7c-.3-.5-.5-1.1-.5-1.7,0-1.9,1.5-3.4,3.4-3.4s2.4.7,3,1.7l3-1.7c-1.2-2.1-3.4-3.4-6-3.4-3.8,0-6.9,3.1-6.9,6.9s.3,2.4.9,3.4c1.2,2.1,3.4,3.5,6,3.5s4.8-1.4,6-3.5l-3-1.7ZM19,10.4h-.7v3.3h.7v-3.3ZM20.5,10.4h-.7v3.3h.7v-3.3Z"/>
    <path class="st1" d="M21.1,10.9h-3.3v.7h3.3v-.7ZM21.1,12.4h-3.3v.7h3.3v-.7Z"/>
  </g>
</svg>