<?xml version="1.0" encoding="UTF-8"?>
<svg id="Layer_1" xmlns="http://www.w3.org/2000/svg" version="1.1" viewBox="0 0 24 24">
  <!-- Generator: Adobe Illustrator 30.1.0, SVG Export Plug-In . SVG Version: 2.1.1 Build 136)  -->
  <defs>
    <style>
      .st0 {
        fill: #2c2c2c;
      }

      .st1 {
        fill: #e7352c;
      }
    </style>
  </defs>
  <path class="st0" d="M11.7,17.1c.3-.1.4-.5.2-.7-.1-.3-.5-.4-.7-.2-.3.1-.4.5-.2.7.1.3.5.4.7.2Z"/>
  <path class="st0" d="M14.4,16.4c.3,0,.6,0,.7-.3,0-.3,0-.6-.3-.7-.3,0-.6,0-.7.3,0,.3,0,.6.3.7Z"/>
  <g>
    <path class="st1" d="M8.2,17.5c0,.9-.7,1.6-1.6,1.6-.1,0-.2,0-.3,0-.6-.1-1.1-.6-1.3-1.3-.2-.9.4-1.7,1.3-1.9.5-.1,1.1,0,1.4.4.3.3.5.7.5,1.1h0ZM22.1,15.9c-1-7.3-6.7-13-14-14-.8.4-1.6,1-2.3,1.7v1.5c7.2,0,13.1,5.9,13.1,13.1h1.5c.7-.7,1.2-1.5,1.7-2.3h0Z"/>
    <path class="st1" d="M23.3,11.1c0-4.2-2.5-8-6.4-9.6-1.3-.5-2.6-.8-4-.8-.4,0-.7,0-1.1,0l-.2.7c5.1,1.8,9.1,5.8,10.9,10.9l.7-.2c0-.3,0-.7,0-1.1M13,23.3c-6.8,0-12.3-5.5-12.3-12.3,0-3.3,1.3-6.4,3.6-8.7l.7.7c-4.5,4.4-4.5,11.6,0,16.1,0,0,0,0,0,0,4.4,4.5,11.6,4.5,16.1,0,0,0,0,0,0,0l.7.7c-2.3,2.3-5.5,3.6-8.8,3.5Z"/>
    <path class="st1" d="M12.9,18.9c.2-2.5-.8-4.9-2.8-6.4-1-.8-2.3-1.3-3.6-1.5-.3,0-.6-.3-.6-.7,0-.3.2-.5.4-.6,0,0,.2,0,.3,0,4.6.5,8,4.6,7.5,9.2,0,.5-.1,1-.3,1.5l1.9.5c.6-.2,1.1-.4,1.6-.6.1-.7.2-1.5.2-2.2,0-5.8-4.3-10.8-10.1-11.7-.6-.1-1.3-.1-1.9,0-.8.2-1.5.6-2,1.3-1.5,1.7-1.3,4.2.4,5.7.4.3.9.6,1.4.8.3,0,.7.1,1,.2,1.8.3,3.1,1.9,3.1,3.7,0,.7-.2,1.4-.6,2l1.3.8c.6.2,1.3.3,1.9.3.4-.8.6-1.6.7-2.5"/>
  </g>
</svg>