<?xml version="1.0" encoding="UTF-8"?>
<svg id="Layer_1" xmlns="http://www.w3.org/2000/svg" version="1.1" viewBox="0 0 24 24">
  <!-- Generator: Adobe Illustrator 30.1.0, SVG Export Plug-In . SVG Version: 2.1.1 Build 136)  -->
  <defs>
    <style>
      .st0 {
        fill: #ffda3e;
      }

      .st1 {
        fill: #d6ba32;
      }
    </style>
  </defs>
  <rect x="12" y="5.4" width="6.7" height="13.1"/>
  <g id="g3768">
    <path id="path3770" class="st1" d="M3.2,2.5c2,0,3.9,0,5.9,0,2.2,0,4.3,0,6.5,0,1.7,0,3.4,0,5.2,0-.5,6-1.1,11.9-1.6,17.9-2.3.7-4.6,1.3-6.9,2-.3.1-.6,0-.9,0-2.2-.6-4.4-1.3-6.6-1.9-.6-6-1.1-11.9-1.6-17.9M12,4.1c0,2.9,0,5.9,0,8.8,0,2.7,0,5.4,0,8.1,1.9-.5,3.8-1,5.8-1.6.5-5.1.9-10.2,1.3-15.3-2.4,0-4.7,0-7.1,0M9.6,15.6c-1.1-.3-2.3-.7-3.4-.9,0,.7,0,1.4,0,2,1.7.4,3.3,1,5,1.4,0-3.9,0-7.8,0-11.7-.6,0-1.1,0-1.7,0,0,3.1,0,6.2,0,9.2h0Z"/>
  </g>
  <g id="g3796">
    <path id="path3798" class="st0" d="M12,4.1c2.4,0,4.7,0,7.1,0-.4,5.1-.9,10.2-1.3,15.3-1.9.6-3.8,1.1-5.8,1.6,0-2.7,0-5.4,0-8.1,0-2.9,0-5.9,0-8.8M12.7,6.4c0,2.5,0,5.1,0,7.6,1.2-.2,2.3-.4,3.5-.6,0,.6,0,1.2,0,1.8-1.1.3-2.2.6-3.4.9,0,.7,0,1.4,0,2,1.4-.3,2.8-.7,4.2-1.1.2,0,.5,0,.5-.3.2-1.8.3-3.6.4-5.5-1.2,0-2.3.3-3.5.4,0-1,0-2.1,0-3.1,1.2,0,2.5,0,3.7,0,0-.7.1-1.4.2-2.1-1.9,0-3.7,0-5.6,0h0Z"/>
  </g>
  <path id="path3806" d="M9.6,15.6c0-3.1,0-6.2,0-9.2.6,0,1.1,0,1.7,0,0,3.9,0,7.8,0,11.7-1.7-.4-3.3-.9-5-1.4,0-.7,0-1.4,0-2,1.2.2,2.3.6,3.4.9Z"/>
</svg>