<?xml version="1.0" encoding="UTF-8"?>
<svg id="Layer_1" xmlns="http://www.w3.org/2000/svg" version="1.1" viewBox="0 0 24 24">
  <!-- Generator: Adobe Illustrator 30.1.0, SVG Export Plug-In . SVG Version: 2.1.1 Build 136)  -->
  <defs>
    <style>
      .st0 {
        fill: #fff;
      }

      .st1 {
        fill: #b4519e;
      }
    </style>
  </defs>
  <polyline class="st0" points="7 3 6.8 3 4.1 3.4 2.8 6.5 2.7 9.9 1.6 11.5 1.4 12.6 2.7 14.2 3.2 19.2 4.5 21.5 7.8 21.1 20.1 21.1 20.9 17.6 21.1 14.7 22.8 12.6 22.6 11.5 20.9 8.9 21.1 5.1 19.8 3.2 7 3.2"/>
  <path class="st1" d="M.3,12.4v-.7l.4-.6c2.7-1.6,1.2-3.6,1.9-6.8s1.3-2.2,2.5-2.2h13.8c.9,0,1.7.4,2.2,1.1s.6,1.6.7,2.5v2.7c0,2.8,2.3,2.1,2.1,3.9s-2,1-2,3.6,0,2.5-.2,3.8-1.1,2.3-2.4,2.3H5.2c-1.4,0-2.6-.9-2.8-2.4-.4-2.8.5-5.1-1.4-6.3s-.6-.5-.8-.9ZM5.6,19.1c-.3-.4-.4-1-.5-1.4v-2.3c0-.7-.2-1.5-.6-2.1s-1-.8-1.5-1.2c1.2-.8,1.9-1.3,2-2.9v-2.6c.1-.5.2-1.1.6-1.5s.7-.2,1-.4c.5-.2.4-1.1,0-1.2-1.1-.4-2.7.5-2.8,2.3v3.4c-.2.9-.7,1.7-1.4,2.1s-.5.5-.5.8.2.7.5.8c.8.4,1.3,1.2,1.4,2.1v3.4c.2,2,2.2,2.7,2.9,2.2s.4-1,0-1.2-.8-.1-1-.4ZM17.4,19.5c-.4.2-.3,1,0,1.2.6.3,1.2,0,1.7-.2s1.1-1.1,1.1-2,0-2.4.1-3.5c.2-1.9,1.8-1.8,1.8-2.8s-.1-.7-.5-.8c-.8-.4-1.3-1.2-1.4-2.1v-3.4c-.2-1.9-2-2.7-3-2.2s-.4,1,0,1.2.7.2,1,.3.6.9.6,1.3v2.5c0,.7.2,1.4.5,2s1,.9,1.5,1.3c-.5.4-1.1.7-1.5,1.2s-.5,1.2-.5,1.7v2.5c-.1.5-.2,1.1-.6,1.5s-.7.2-1,.4ZM14.4,14.3c-.4-.1-.7-.5-.9-.9-.3-.7,0-1.5.5-1.8,1.1-.8,2,.4,2.2.2s.1-.2.1-.3v-2.7c0-.3-.3-.5-.6-.5h-2.4c-.1,0-.3-.1-.4-.2-.2-.3,1.1-1.3,0-2.6s-1.4-.6-2,0c-1.2,1.3.3,2.4,0,2.7s-.2.1-.3.1h-2.4c-.3,0-.6.2-.6.5v8.5c0,.3.3.6.6.6h7.6c.3,0,.6-.3.6-.6v-2.8c0-.1-.1-.4-.2-.4-.4-.1-.7.7-1.8.4Z"/>
</svg>