<?xml version="1.0" encoding="UTF-8"?>
<svg id="Layer_1" xmlns="http://www.w3.org/2000/svg" version="1.1" viewBox="0 0 24 24">
  <!-- Generator: Adobe Illustrator 30.1.0, SVG Export Plug-In . SVG Version: 2.1.1 Build 136)  -->
  <defs>
    <style>
      .st0 {
        fill: #3776ab;
      }

      .st1 {
        fill: #ffd243;
      }
    </style>
  </defs>
  <path class="st0" d="M17.8,2.8v-.3s-.1-.3-.1-.3l-.2-.3-.2-.3-.3-.3-.5-.3-.6-.3-.7-.3-.9-.2h-1.1C13.2,0,11.9,0,11.9,0h-.8s-.8,0-.8,0h-.7c0,0-.6.2-.6.2h-.6c0,.1-.5.3-.5.3l-.4.2-.4.2-.3.2-.2.3-.2.3v.3c-.1,0-.2.3-.2.3v.4s0,2.8,0,2.8h5.8v.8H3.8s-.2,0-.2,0h-.2s-.3,0-.3,0h-.4c0,.1-.4.3-.4.3l-.4.2-.4.3-.4.4-.4.6-.3.7-.2.9-.2,1v1.2c0,0,0,1.2,0,1.2v1c.1,0,.4.9.4.9l.3.7.3.6.3.5.4.4.4.3.3.2h.3c0,.1.3.2.3.2h.2s2.2,0,2.2,0v-3.3s0-.3,0-.3v-.3c0,0,.2-.4.2-.4l.2-.4.2-.4.3-.3.3-.3.4-.3.5-.2h.6c0-.1.7-.2.7-.2h6.2s.3,0,.3,0h.3c0,0,.3-.2.3-.2h.3c0-.1.3-.3.3-.3l.3-.2.3-.3.3-.4.2-.5v-.5c.1,0,.2-.6.2-.6V3.2h0c0-.1,0-.3,0-.3ZM9.7,3.3l-.2.3-.3.2h-.4c0,0-.4,0-.4,0l-.3-.2-.2-.3v-.4c0,0,0-.4,0-.4l.2-.3.3-.2h.4c0,0,.4,0,.4,0l.3.2.2.3v.4c0,0,0,.4,0,.4Z"/>
  <path class="st1" d="M24,10.8v-1c-.1,0-.3-.9-.3-.9l-.3-.7-.3-.6-.3-.5-.4-.3-.4-.3-.3-.2h-.3c0-.1-.3-.2-.3-.2h-.2s-.1,0-.1,0h-2.1v3.3s0,.3,0,.3v.3c0,0-.2.3-.2.3v.4c-.1,0-.3.4-.3.4l-.3.3-.3.3-.4.3-.5.2h-.6c0,.1-.7.2-.7.2h-6s-.2,0-.2,0h-.3s-.3,0-.3,0h-.3c0,0-.4.2-.4.2l-.3.2-.3.2-.3.3-.3.4-.2.5v.5c-.1,0-.2.6-.2.6v5.3h0c0,.1,0,.3,0,.3v.2s.1.3.1.3l.2.3.2.3.3.3.5.3.6.3.7.2.9.2h1.1c0,.1,1.3.2,1.3.2h.8s.8,0,.8,0h.7c0,0,.6-.2.6-.2h.6c0-.1.5-.3.5-.3l.4-.2.4-.2.3-.2.2-.2.2-.3v-.3c.1,0,.2-.3.2-.3v-.4s0-2.8,0-2.8h-5.8v-.8h8.4s.2,0,.2,0h.3s.4-.1.4-.1l.4-.2.4-.2.4-.3.4-.5.4-.6.3-.7.2-.9.2-1v-1.2c0,0,0-1.2,0-1.2ZM14.3,20.7l.2-.3.3-.2h.4c0,0,.4,0,.4,0l.3.2.2.3v.4c0,0,0,.4,0,.4l-.2.3-.3.2h-.4c0,0-.4,0-.4,0l-.3-.2-.2-.3v-.4c0,0,0-.4,0-.4Z"/>
</svg>