<?xml version="1.0" encoding="UTF-8"?>
<svg id="Layer_1" xmlns="http://www.w3.org/2000/svg" version="1.1" viewBox="0 0 24 24">
  <!-- Generator: Adobe Illustrator 30.1.0, SVG Export Plug-In . SVG Version: 2.1.1 Build 136)  -->
  <defs>
    <style>
      .st0 {
        fill: #bc1142;
      }

      .st1 {
        fill: #75a928;
      }

      .st2 {
        fill: #a22846;
      }
    </style>
  </defs>
  <path class="st2" d="M14.1,12.4h0c0,0,0,0,0-.1,0,0,0,0,0,0,0,0,0,0,0,0,0,0,0,0,0,0,0,0,0,0,0,0,0,0,0,0,0,0,0,0,0,0,0,0,0,0,0,0,0,0,0,0,0,0,0,0,0,0,0,0,0,0,0,0,0,0,0,0,0,0,0,0,0,0,0,0,0,0,0,0,0,0,0,0,0,0h0s0,0,0,0c0,0,0,0,0,0h0s0,0,0,0c0,0,0,0,0,0,0,0,0,0,0,0h0s0,0,0,0c0,0,0,0,0,0,0,0,0,0,0,0,0,0,0,0,0,0,0,0,0,0,0,0,0,0,0,0,0,0,0,0,0,0,0,0,0,0,0,0,0,0,0,0,0,0,0,0,0,0,0,0,0,0,0,0,0,0,0,0,0,0,0,0,0,.1h0s0,.1,0,.2c0,0,0,0,0,0,0,0,0,0,0,0,0,0,0,0,0,0,0,0,0,0,0,0,0,0,0,0,0,0,0,0,0,0,0,0,0,0,0,0,0,0,0,0,0,0,0,0,0,0,0,0,0,0,0,0,0-.1,0-.1ZM14,12.4s-.1,0,0,0c0,0,.1,0,0,0ZM14,12.6s0,0,0,0c0,0,0,0,0-.1,0,0,0,0,0,0,0,0,0,0,0,.1ZM13.9,12.2s0,0,0,0c0,0,0,0,0,0,0,0,0,0,0,0,0,0,0,0,0,0,0,0,0,0,0,0,0,0,0,0,0,0,0,0,0,0,0,0,0,0,0,0,0,0,0,0,0,0,0,0,0,0,0,0,0,0,0,0,0,0,0,0,0,0,0,0,0,0h0s0,0,0,0c0,0,0,0,0,0,0,0,0,0,0,0,0,0,0,0,0,0,0,0,0,0,0,0,0,0,0,0,0,0,0,0,0,0,0,0,0,0,0,0,0,0,0,0,0,0,0,0,0,0,0,0,0,0,0,0,0,0,0,0,0,0,0,0,0,0,0,0,0,0,0,0,0,0,0,0,0,0,0,0,0,0,0,0,0,0,0,0,0,0,0,0,0,0,.1,0,0,0,0,0-.1,0,0,0,0,0,0,0ZM13.9,12.3s0,0,0,0c0,0,0,0,0,0,0,0,0,0,0,0,0,0,0,0,0,0ZM13.7,12.3s0,0,0,0c0,0,0,0,0,0,0,0,0,0,0,0,0,0,0,0,0,0,0,0,0,0,0,0,0,0,0,0,0,0,0,0,0,0,0,0,0,0,0,0,0,0,0,0,0,0,0,0,0,0,0,0,0,0,0,0,0,0,0,0,0,0,0,0,0,0,0,0,0,0,0,0h0s0,0,0,0c0,0,0,0,0,0,0,0,0,0,0,0,0,0,0,0,0,0,0,0,0,0,0,0,0,0,0,0,0,0,0,0,0,0,0,0,0,0,0,0,0,0,0,0,0,0,0,0,0,0,0,0,0,0,0,0,0,0,0,0,0,0,0,0,0,0,0,0,0,0,0,0,0,0,0,0-.1,0,0,0,0,0,.1,0,0,0,0,0,0,0,0,0,0,0,0,0,0,0,0,0,0,0ZM13.8,12.3s0,.1,0,0c0,0,0,0,0,0ZM13.7,12.6s0,0,0-.1c0,0,0,.1,0,.1ZM13.8,12.7s0,0,0,0c0,0,0,0,0,0,0,0,0,0,0,0,0,0,0,0,0,0ZM13.7,12.6s0,0,0-.1c0,0,0,0,0,0,0,0,0,0,0,.1,0,0,0,0,0,0ZM13.9,12.8s0,0,0,0c0,0,0,0,0,0,0,0,0,0,0,0,0,0,0,0,0,0ZM13.9,12.6s0,0,0,0c0,0,0,0,0,0h0s0,0,0,0c0,0,0,0,0,0,0,0,0,0,0,0ZM14,12.7s0,0,0,0c0,0,0,0,0,0h0s0,0,0,0c0,0,0,0,0,0ZM14.1,12.6s0-.1,0-.1c0,0,0,.1,0,.1ZM14.1,12.4h0s0,0,0,0c0,0,0,0,0,0,0,0,0,0,0,0h0s0,0,0,0c0,0,0,0,0,0h0s0,0,0,0,0,0,0,0h0s0,0,0,0ZM14.1,12.3h0s0,0,0,0,0,0,0,0h0s0,0,0,0ZM14,12.3s0,0,0,0,0,0,0,0,0,0,0,0,0,0,0,0ZM14.1,12.3s0,0,0,0,0,0,0,0,0,0,0,0,0,0,0,0Z"/>
  <g>
    <path d="M8.3,1.2c-.1,0-.2,0-.3.1-.3-.1-.6-.2-.9,0-.4,0-.6,0-.7.2,0,0-.7,0-1,.3-.7,0-.9.4-.7.9-.1.2-.3.5,0,.9-.1.2,0,.5.2.8,0,.3,0,.6.3.8,0,.5.4.7.5.8,0,.3.2.5.7.7,0,.4.4.5.7.6-1,.6-1.8,1.4-1.8,3.4v.3c-1.3.7-2.3,3.1-.7,5,.1.6.3,1,.4,1.5.2,1.9,1.8,2.8,2.2,2.9.6.5,1.2.9,2.1,1.2.8.9,1.7,1.2,2.5,1.2,0,0,1.8-.3,2.6-1.2.9-.3,1.5-.8,2.1-1.2.4-.1,1.9-1,2.2-2.9.2-.5.3-.9.4-1.5,1.6-1.9.6-4.2-.6-5v-.3c-.1-2-1-2.8-2-3.4.3,0,.6-.2.7-.6.5-.1.6-.4.7-.7.1,0,.6-.4.5-.8.3-.2.4-.4.3-.8.3-.3.3-.6.2-.8.3-.4.2-.7,0-.9.2-.5,0-1-.7-.9-.3-.4-.9-.3-1-.3-.1-.1-.2-.3-.7-.2-.3-.3-.6-.2-.9,0-.4-.3-.6,0-.9,0-.4-.2-.6,0-.8.1-.5-.1-.6.1-.9.4h-.3c-.7.5-1.1,1.4-1.2,1.9-.1-.5-.5-1.4-1.2-1.9h-.3c-.2-.2-.4-.5-.9-.4-.2,0-.3-.3-.8-.1-.2,0-.4-.2-.6-.2h0"/>
    <path class="st1" d="M6.8,3.2c2,1.1,3.1,1.9,3.7,2.6-.3,1.3-2,1.4-2.6,1.4.1,0,.2-.1.3-.2-.2-.1-.7,0-1.1-.2.1,0,.2,0,.3-.2-.4-.1-.7-.2-1-.4.1,0,.2,0,.4,0-.3-.2-.7-.3-.9-.6.2,0,.3,0,.4,0-.3-.2-.5-.4-.7-.6.2,0,.3,0,.4,0-.2-.2-.5-.4-.6-.7.2,0,.3,0,.4,0,0-.2-.4-.3-.6-.7.2,0,.4,0,.4,0,0-.4-.2-.6-.4-.8.4,0,1,0,.9,0l-.2-.3c.4-.1.8,0,1,.1.1-.1,0-.2-.2-.4.3,0,.6.1.9.2.1-.1,0-.3-.2-.4.5,0,.7.2.9.4.2-.2,0-.3,0-.4.4.1.6.3.8.5,0,0,.2-.2,0-.4.3.2.5.4.6.6.2-.1,0-.3,0-.4.3.2.5.5.7.7,0,0,0-.1.1-.3.7.7,1.6,2.4.2,3-1.2-1-2.5-1.7-4-2.3h0"/>
    <path class="st1" d="M17.2,3.2c-2,1.1-3.1,1.9-3.7,2.6.3,1.3,2,1.4,2.6,1.4-.1,0-.2-.1-.3-.2.2-.1.7,0,1.1-.2-.1,0-.2,0-.3-.2.4-.1.7-.2,1-.4-.1,0-.2,0-.4,0,.3-.2.7-.3.9-.6-.2,0-.3,0-.4,0,.3-.2.5-.4.7-.6-.2,0-.3,0-.4,0,.2-.2.5-.4.6-.7-.2,0-.3,0-.4,0,0-.2.4-.3.6-.7-.2,0-.4,0-.4,0,0-.4.2-.6.4-.8-.4,0-1,0-.9,0l.2-.3c-.4-.1-.8,0-1,.1-.1-.1,0-.2.2-.4-.3,0-.6.1-.9.2-.1-.1,0-.3.2-.4-.5,0-.7.2-.9.4-.2-.2,0-.3,0-.4-.4.1-.6.3-.8.5,0,0-.2-.2,0-.4-.3.2-.5.4-.6.6-.2-.1,0-.3,0-.4-.3.2-.5.5-.7.7,0,0,0-.1-.1-.3-.7.7-1.6,2.4-.2,3,1.1-1,2.5-1.7,4-2.3h0"/>
    <path class="st0" d="M14.4,16.9c0,1.3-1,2.3-2.3,2.3-1.3,0-2.3-1-2.4-2.3,0,0,0,0,0,0,0-1.3,1-2.3,2.3-2.3,1.3,0,2.3,1,2.4,2.3h0"/>
    <path class="st0" d="M10.7,10.4c1,.7,1.1,2.2.4,3.4-.8,1.2-2.2,1.6-3.1,1-1-.7-1.1-2.2-.4-3.4.8-1.2,2.2-1.6,3.1-1"/>
    <path class="st0" d="M13.3,10.3c-1,.7-1.1,2.2-.4,3.4.8,1.2,2.2,1.6,3.1,1,1-.7,1.1-2.2.4-3.4-.8-1.2-2.2-1.6-3.1-1"/>
    <path class="st0" d="M5.8,11.5c1-.3.4,4.6-.5,4.2-.9-.8-1.2-3.1.5-4.2"/>
    <path class="st0" d="M18,11.5c-1-.3-.4,4.6.5,4.2.9-.8,1.2-3.1-.5-4.2"/>
    <path class="st0" d="M14.4,7.9c1.8-.3,3.3.8,3.3,2.9,0,.8-3.9-2.8-3.3-2.9"/>
    <path class="st0" d="M9.4,7.8c-1.8-.3-3.3.8-3.3,2.9,0,.8,3.9-2.8,3.3-2.9"/>
    <path class="st0" d="M12,7.3c-1.1,0-2.1.8-2.1,1.3,0,.6.9,1.2,2.1,1.3,1.3,0,2.1-.5,2.1-1.1,0-.7-1.2-1.5-2.1-1.5h0"/>
    <path class="st0" d="M12.1,19.9c.9,0,2.2.3,2.2.8,0,.5-1.1,1.5-2.3,1.5-1.2,0-2.3-1-2.3-1.4,0-.5,1.4-1,2.4-.9"/>
    <path class="st0" d="M8.6,17.1c.7.8,1,2.3.4,2.8-.5.3-1.8.2-2.7-1.2-.6-1.2-.5-2.3-.1-2.7.6-.4,1.6.1,2.4,1.1h0"/>
    <path class="st0" d="M15.4,16.8c-.7.9-1.1,2.5-.6,3,.5.4,1.9.4,2.9-1.1.7-1,.5-2.6,0-3.1-.6-.5-1.5.1-2.3,1.1h0"/>
  </g>
</svg>