<?xml version="1.0" encoding="UTF-8"?>
<svg id="Layer_1" xmlns="http://www.w3.org/2000/svg" version="1.1" viewBox="0 0 24 24">
  <!-- Generator: Adobe Illustrator 30.1.0, SVG Export Plug-In . SVG Version: 2.1.1 Build 136)  -->
  <defs>
    <style>
      .st0 {
        fill: #fff;
      }

      .st1 {
        fill: #666;
      }
    </style>
  </defs>
  <path class="st0" d="M20,22.6l-17.9-2.2c-.3-.5-.9-2.8-.9-3.1l-.5-4.4C.6,6.5,2.7,2.5,3.1,1.4h16.6c.8,0,1.4.6,1.4,1.4v14.8c0,2.7-.5,5-1.1,5Z"/>
  <path class="st1" d="M20.5,23.2c1.8-4.1,2.9-6.7,2.9-11.2,0-7.3-3-11.3-2.9-11.1h-8.4c0,0-8.7,0-8.7,0C.7,6.3-.1,11.8,1.2,17.4h9.5c6.5,0,8-12.2,0-10.8l-1.5,7.5h-3.6s1.9-10,1.9-10h.2c17.9-3.6,14.7,16.4,2.7,16.4H2.2c.3.9.7,1.8,1.2,2.7"/>
</svg>