<?xml version="1.0" encoding="iso-8859-1"?>
<!-- Uploaded to: SVG Repo, www.svgrepo.com, Generator: SVG Repo Mixer Tools -->
<!DOCTYPE svg PUBLIC "-//W3C//DTD SVG 1.1//EN" "http://www.w3.org/Graphics/SVG/1.1/DTD/svg11.dtd">
<svg fill="#000000" version="1.1" id="Capa_1" xmlns="http://www.w3.org/2000/svg" xmlns:xlink="http://www.w3.org/1999/xlink" 
	 width="800px" height="800px" viewBox="0 0 468.614 468.614"
	 xml:space="preserve">
<g>
	<path d="M291.299,116.517h-3.501c10.635-12.36,17.102-28.378,17.102-45.915C304.899,31.666,273.219,0,234.305,0
		c-38.93,0-70.584,31.666-70.584,70.602c0,17.537,6.477,33.555,17.093,45.915h-3.51c-19.645,0-35.626,15.997-35.626,35.645v117.105
		c0,19.648,15.982,35.633,35.626,35.633h1.372v128.07c0,20.332,10.697,35.645,24.884,35.645h61.468
		c14.208,0,24.908-15.312,24.908-35.645v-128.07h1.363c19.642,0,35.639-15.984,35.639-35.633V152.161
		C326.932,132.514,310.94,116.517,291.299,116.517z"/>
</g>
</svg>