<?xml version="1.0" encoding="UTF-8"?>
<svg id="Layer_1" xmlns="http://www.w3.org/2000/svg" version="1.1" viewBox="0 0 48 48">
  <!-- Generator: Adobe Illustrator 29.8.4, SVG Export Plug-In . SVG Version: 2.1.1 Build 6)  -->
  <defs>
    <style>
      .st0 {
        fill: #0af;
      }
    </style>
  </defs>
  <path class="st0" d="M14.5,28.9l13.6-13.4c1.1-1,2.8-1,3.8,0,1.1,1,1.1,2.7,0,3.8l-13.6,13.4c-.5.5-1.2.8-1.9.8s-1.4-.3-1.9-.8c-1.1-1-1.1-2.7,0-3.8ZM13.9,39c-1.5,1.5-4.2,1.5-5.8,0-.8-.8-1.2-1.8-1.2-2.8s.4-2.1,1.2-2.8l11.5-11.4c-1-.4-2.1-.6-3.2-.6-2.5,0-4.9,1-6.7,2.8l-5.4,5.4c-1.8,1.8-2.8,4.1-2.8,6.6s1,4.9,2.8,6.6c1.8,1.8,4.2,2.8,6.7,2.8s4.9-1,6.7-2.8l5.4-5.4c1.8-1.8,2.8-4.1,2.8-6.6s-.2-2.2-.6-3.2l-11.5,11.4ZM42.2,5.3c-1.8-1.8-4.2-2.8-6.7-2.8s-4.9,1-6.7,2.8l-5.4,5.4c-1.8,1.8-2.8,4.1-2.8,6.6s.2,2.2.6,3.2l11.5-11.4c.8-.8,1.8-1.2,2.9-1.2s2.1.4,2.9,1.2c.8.8,1.2,1.8,1.2,2.8s-.4,2.1-1.2,2.8l-11.5,11.4c1,.4,2.1.6,3.2.6,2.5,0,4.9-1,6.7-2.8l5.4-5.4c1.8-1.8,2.8-4.1,2.8-6.6s-1-4.9-2.8-6.6Z"/>
</svg>