<?xml version="1.0" encoding="UTF-8"?>
<svg xmlns="http://www.w3.org/2000/svg" version="1.1" viewBox="0 0 1226.3 595.3">
  <defs>
    <style>
      .cls-1 {
        fill: #666;
      }
    </style>
  </defs>
  <!-- Generator: Adobe Illustrator 28.7.1, SVG Export Plug-In . SVG Version: 1.2.0 Build 142)  -->
  <g>
    <g id="Layer_1">
      <g>
        <path class="cls-1" d="M1130.6,400.2c19.4-37,30.4-78.9,30.4-123.2s-10.4-84-28.9-120.3h-488.4s0,0,0,0H137c-28.8,59.1-38.2,119.4-23.4,181.1h103.8c71.1,0,87.3-132.9-.2-118.4l-16.7,81.5-39.4.2,21-109.1,2.3-.6c195-39.1,160.1,179.8,29.1,179.4l-89.5.3c3.7,9.8,8,19.6,13,29.4M477.3,313.7c-15.6,82.2-149.3,72.5-137.2-.5l20.6-124h40.5l-19.3,103.4c-11.2,60.1,50.4,60.4,59.6,11.8l21.9-115.2h37.6l-23.7,124.5ZM617.9,334.4l-7.5,34.7h-109.4l21.1-109.4h102.3l-6.8,32.9h-62.9l-8.4,41.8h71.7ZM672,223.5h-143.6l6.8-34.3,143.2-.2-6.4,34.5ZM779.5,371.4h-98.9l31.4-182.2h35.3l-25.5,148.1h63.6l-5.9,34.1ZM833.9,371.4h-35.3l22.8-132.2h35.3l-22.8,132.2ZM843.5,222.7h-.2c-9.6,0-16.9-7.3-16.9-18.9.2-13.2,9.6-22.2,20.4-22.2s17.7,7.6,17.7,19.2-9.6,21.9-20.9,21.9ZM985.6,294.6l-13.3,76.8h-35.3l12.5-73.3c.7-4.6,1.2-10,1.2-14.9,0-9.2-2.9-15.7-11.8-15.7s-25,15.9-29.9,45.1l-10.1,58.7h-35.3l15.2-89.2c2.9-16.8,4.9-31.4,6.4-43h31.4l-2.5,21.9h.5c11.3-17.3,26.3-24.9,42.2-24.9s30.7,13.2,30.7,36-1,15.9-2,22.4ZM1117.9,371.4h-39.3l-21.1-56.5-13.3,14.1-7.4,42.4h-35.1l32.9-191.9h35.1l-19.6,114.9h.5c3.7-5.1,7.4-10.3,10.8-15.1l30.7-40h43.4l-51,54.3,33.4,77.8Z"/>
        <path class="cls-1" d="M1130.6,400.2c19.4-37,30.4-78.9,30.4-123.2s-10.4-84-28.9-120.3c0,0,0,0,0,0H137c-28.8,59-38.2,119.3-23.4,181h103.8c71.1,0,87.3-132.9-.2-118.4l-16.7,81.5-39.4.2,21-109.1,2.3-.6c195-39.1,160.1,179.8,29.1,179.4l-89.5.3c3.7,9.8,8,19.6,13,29.4M477.3,313.7c-15.6,82.2-149.3,72.5-137.2-.5l20.6-124h40.5l-19.3,103.4c-11.2,60.1,50.4,60.4,59.6,11.8l21.9-115.2h37.6l-23.7,124.5ZM617.9,334.4l-7.5,34.7h-109.4l21.1-109.4h102.3l-6.8,32.9h-62.9l-8.4,41.8h71.7ZM672,223.5h-143.6l6.8-34.3,143.2-.2-6.4,34.5ZM779.5,371.4h-98.9l31.4-182.2h35.3l-25.5,148.1h63.6l-5.9,34.1ZM833.9,371.4h-35.3l22.8-132.2h35.3l-22.8,132.2ZM843.5,222.7h-.2c-9.6,0-16.9-7.3-16.9-18.9.2-13.2,9.6-22.2,20.4-22.2s17.7,7.6,17.7,19.2-9.6,21.9-20.9,21.9ZM985.6,294.6l-13.3,76.8h-35.3l12.5-73.3c.7-4.6,1.2-10,1.2-14.9,0-9.2-2.9-15.7-11.8-15.7s-25,15.9-29.9,45.1l-10.1,58.7h-35.3l15.2-89.2c2.9-16.8,4.9-31.4,6.4-43h31.4l-2.5,21.9h.5c11.3-17.3,26.3-24.9,42.2-24.9s30.7,13.2,30.7,36-1,15.9-2,22.4ZM1117.9,371.4h-39.3l-21.1-56.5-13.3,14.1-7.4,42.4h-35.1l32.9-191.9h35.1l-19.6,114.9h.5c3.7-5.1,7.4-10.3,10.8-15.1l30.7-40h43.4l-51,54.3,33.4,77.8Z"/>
      </g>
    </g>
  </g>
</svg>